<?xml version="1.0" encoding="utf-8"?>
<!-- Generator: Adobe Illustrator 21.1.0, SVG Export Plug-In . SVG Version: 6.00 Build 0)  -->
<svg version="1.1" id="Layer_1" xmlns="http://www.w3.org/2000/svg" xmlns:xlink="http://www.w3.org/1999/xlink" x="0px" y="0px"
	 viewBox="0 0 1080 1080" style="enable-background:new 0 0 1080 1080;" xml:space="preserve">
<style type="text/css">
	.st0{fill:#FFFFFF;}
</style>
<g>
	<path class="st0" d="M927.4,346.4c-4.9-9.9-17-13.9-26.8-8.9c-9.9,4.9-13.9,17-8.9,26.8C919.1,419.1,933,478.2,933,540
		c0,216.7-176.3,393-393,393c-156.3,0-297.7-92.6-360.3-235.8c-4.4-10.1-16.2-14.7-26.3-10.3c-10.1,4.4-14.7,16.2-10.3,26.3
		C212,871,367.8,973,540,973c58.4,0,115.2-11.5,168.5-34c51.6-21.8,97.9-53,137.6-92.8c39.8-39.8,71-86.1,92.8-137.6
		c22.6-53.4,34-110.1,34-168.5C973,472,957.7,406.8,927.4,346.4z"/>
	<path class="st0" d="M275.8,770.2c42.4,48.6,97.1,84.5,158.2,103.9c2,0.6,4,0.9,6,0.9c8.5,0,16.4-5.4,19.1-14
		c3.3-10.5-2.5-21.8-13-25.1C336,801.1,252.6,705,233.8,591.1c-0.9-5.6-4.2-10.6-9.1-13.7c-4.8-3-10.8-3.9-16.3-2.3l-58,17
		c-2.3-17.3-3.4-34.7-3.4-52.2c0-107.8,42.8-208.4,120.5-283.2c8-7.7,8.2-20.3,0.5-28.3c-7.7-8-20.3-8.2-28.3-0.5
		c-41.5,40-74.2,86.9-97.1,139.6C119,422.1,107,480.1,107,540c0,27.4,2.6,54.8,7.7,81.5c1.1,5.5,4.4,10.4,9.2,13.3
		c4.8,2.9,10.6,3.7,16.1,2.1l58.8-17.2C211.7,675.3,238.1,726.9,275.8,770.2z"/>
	<path class="st0" d="M209.5,521.6c0.8,0.1,1.5,0.1,2.3,0.1c10,0,18.7-7.5,19.8-17.7c18-156.5,150.6-274.5,308.3-274.5
		c44.8,0,88,9.3,128.4,27.7c4.8,2.2,10.4,2.4,15.4,0.5c5-1.9,9-5.7,11.2-10.5l25.3-56.5c36.8,19,70.7,43.9,100.2,73.9l-46.1,41.9
		c-8.1,7.4-8.8,19.8-1.5,28c45.6,51.7,72.5,116.8,76.9,185.3h-68.4c-11,0-20,9-20,20s9,20,20,20h68.4
		C839.4,721.9,704.4,850.4,540,850.4c-11,0-20,9-20,20s9,20,20,20c47.3,0,93.2-9.3,136.4-27.5c41.7-17.6,79.2-42.9,111.4-75.1
		s57.4-69.6,75.1-111.4c18.3-43.2,27.5-89.1,27.5-136.4c0-78.9-26.5-155-75-216.6l47-42.6c8.1-7.4,8.8-19.9,1.5-28.1
		c-40.2-45.3-88.5-81.1-143.4-106.3c-0.6-0.3-1.2-0.5-1.7-0.8c0,0-0.1,0-0.1-0.1c0,0-0.1,0-0.1,0C662.3,119.9,602.3,107,540,107
		c-77,0-152.6,20.5-218.6,59.2c-9.5,5.6-12.7,17.8-7.1,27.4c5.6,9.5,17.8,12.7,27.4,7.1C401.5,165.6,470.1,147,540,147
		c49.8,0,98.5,9.5,143.9,27.3l-17.4,38.8c-40.2-15.6-82.7-23.5-126.5-23.5c-86.5,0-169.6,31.8-233.9,89.5
		c-63.8,57.3-104.4,135.5-114.1,220.4C190.7,510.5,198.5,520.4,209.5,521.6z"/>
	<path class="st0" d="M786.9,643.8c-20.2,48-53.7,88.8-97,118.1c-44.3,30-96.2,45.9-149.9,45.9c-71.5,0-138.8-27.9-189.4-78.4
		c-50.6-50.6-78.4-117.8-78.4-189.4s27.9-138.8,78.4-189.4c50.6-50.6,117.8-78.4,189.4-78.4c52,0,101.5,14.9,143.4,41.5l33.4-45.6
		c6.5-8.9,19-10.8,28-4.3c8.9,6.5,10.8,19,4.3,27.9l-33.6,45.8c30.3,26.3,54.9,59.6,71.2,98.2c4.3,10.2-0.5,21.9-10.6,26.2
		c-10.2,4.3-21.9-0.5-26.2-10.6c-15.9-37.7-41.2-69.4-72.3-93c-0.5-0.3-0.9-0.6-1.4-0.9c-0.5-0.4-1-0.8-1.4-1.2
		c-38.3-28-85.1-44-134.8-44c-125.6,0-227.8,102.2-227.8,227.8S414.4,767.8,540,767.8c20.6,0,40.6-2.8,59.8-8
		c0.7-14.4,0.2-31.4-2.5-43.7c-18,5.9-37.3,9.1-57.3,9.1c-40.3,0-78.5-12.7-110.7-36.7c-31.1-23.2-54.5-56.3-66.1-93.1
		c-3.3-10.5,2.6-21.8,13.1-25.1c10.5-3.3,21.8,2.6,25.1,13.1c19,60.9,74.8,101.8,138.6,101.8c25.6,0,49.6-6.6,70.5-18.3
		c5.3,6.9,11.5,16.2,15.2,26.2c0,0,6.2-17.6,3-38.2c34.3-26.6,56.5-68.2,56.5-114.9c0-73.3-54.6-134-125.2-143.8v43.2
		c28.6,5.7,54,23.5,68.9,49.3c5.5,9.6,2.3,21.8-7.3,27.3c-9.6,5.5-21.8,2.3-27.3-7.3c-11.2-19.3-32-31.3-54.2-31.3
		c-34.5,0-62.6,28.1-62.6,62.6c0,34.5,28.1,62.6,62.6,62.6c22.1,0,42.8-11.9,54-31c5.6-9.5,17.8-12.7,27.4-7.1
		c9.5,5.6,12.7,17.9,7.1,27.4c-18.4,31.3-52.3,50.7-88.5,50.7c-56.6,0-102.6-46-102.6-102.6c0-49.7,35.6-91.3,82.6-100.6v-43.2
		c-55.3,7.5-101.6,46-118.6,100.5c-3.3,10.5-14.5,16.4-25.1,13.1c-10.5-3.3-16.4-14.5-13.1-25.1c11.5-36.9,35-69.9,66.1-93.2
		c32.2-24,70.5-36.7,110.7-36.7c102.1,0,185.2,83.1,185.2,185.2c0,54.7-23.9,104-61.7,137.9c0.3,12.4-0.2,34-5.8,57.3
		c40.5-24.4,73.2-61.3,92.4-106.9c4.3-10.2,16-15,26.2-10.7C786.4,621.9,791.2,633.6,786.9,643.8z"/>
</g>
<g>
</g>
<g>
</g>
</svg>
