<?xml version="1.0" encoding="utf-8"?>
<!-- Generator: Adobe Illustrator 21.1.0, SVG Export Plug-In . SVG Version: 6.00 Build 0)  -->
<svg version="1.1" id="Layer_1" xmlns="http://www.w3.org/2000/svg" xmlns:xlink="http://www.w3.org/1999/xlink" x="0px" y="0px"
	 viewBox="0 0 1080 1080" style="enable-background:new 0 0 1080 1080;" xml:space="preserve">
<g>
	<path d="M927.4,346.4c-4.9-9.9-17-13.9-26.8-8.9c-9.9,4.9-13.9,17-8.9,26.8C919.1,419.1,933,478.2,933,540
		c0,216.7-176.3,393-393,393c-156.3,0-297.7-92.6-360.3-235.8c-4.4-10.1-16.2-14.7-26.3-10.3c-10.1,4.4-14.7,16.2-10.3,26.3
		C212,871,367.8,973,540,973c58.4,0,115.2-11.5,168.5-34c51.6-21.8,97.9-53,137.6-92.8c39.8-39.8,71-86.1,92.8-137.6
		c22.6-53.4,34-110.1,34-168.5C973,472,957.7,406.8,927.4,346.4z"/>
	<path d="M275.8,770.2c42.4,48.6,97.1,84.5,158.2,103.9c2,0.6,4,0.9,6,0.9c8.5,0,16.4-5.4,19.1-14c3.3-10.5-2.5-21.8-13-25.1
		C336,801.1,252.6,705,233.8,591.1c-0.9-5.6-4.2-10.6-9.1-13.7c-4.8-3-10.8-3.9-16.3-2.3l-58,17c-2.3-17.3-3.4-34.7-3.4-52.2
		c0-107.8,42.8-208.4,120.5-283.2c8-7.7,8.2-20.3,0.5-28.3c-7.7-8-20.3-8.2-28.3-0.5c-41.5,40-74.2,86.9-97.1,139.6
		C119,422.1,107,480.1,107,540c0,27.4,2.6,54.8,7.7,81.5c1.1,5.5,4.4,10.4,9.2,13.3c4.8,2.9,10.6,3.7,16.1,2.1l58.8-17.2
		C211.7,675.3,238.1,726.9,275.8,770.2z"/>
	<path d="M209.5,521.6c0.8,0.1,1.5,0.1,2.3,0.1c10,0,18.7-7.5,19.8-17.7c18-156.5,150.6-274.5,308.3-274.5
		c50.6,0,100.7,12.4,145.1,35.9c4.9,2.6,10.7,3,16,1.2c5.3-1.8,9.5-5.8,11.7-10.9L737,200c30.4,17.6,58.5,39.3,83.5,64.8l-46.1,41.9
		c-8.1,7.4-8.8,19.8-1.5,28c45.6,51.7,72.5,116.8,76.9,185.3h-68.4c-11,0-20,9-20,20s9,20,20,20h68.4
		C839.4,721.9,704.4,850.4,540,850.4c-11,0-20,9-20,20s9,20,20,20c47.3,0,93.2-9.3,136.4-27.5c41.7-17.6,79.2-42.9,111.4-75.1
		s57.4-69.6,75.1-111.4c18.3-43.2,27.5-89.1,27.5-136.4c0-78.9-26.5-155-75-216.6l47-42.6c8.1-7.4,8.8-19.9,1.5-28.1
		c-40.2-45.3-88.5-81.1-143.4-106.3C663.7,120.2,603,107,540,107c-77,0-152.6,20.5-218.6,59.2c-9.5,5.6-12.7,17.8-7.1,27.4
		c5.6,9.5,17.8,12.7,27.4,7.1C401.5,165.6,470.1,147,540,147c56.2,0,111.1,12.1,161.3,34.7l-16.9,39
		c-45.1-20.4-94.6-31.1-144.4-31.1c-86.5,0-169.6,31.8-233.9,89.5c-63.8,57.3-104.4,135.5-114.1,220.4
		C190.7,510.5,198.5,520.4,209.5,521.6z"/>
	<path d="M800.8,600.9c-13.5,57.9-46.5,110.5-93.1,147.9c-23.3,18.7-49.3,33.3-77.3,43.3c-29,10.4-59.4,15.7-90.4,15.7
		c-71.5,0-138.8-27.9-189.4-78.4c-50.6-50.6-78.4-117.8-78.4-189.4s27.9-138.8,78.4-189.4c50.6-50.6,117.8-78.4,189.4-78.4
		c54.5,0,106,16.5,149,45.4l33.7-44.6c6.7-8.8,19.2-10.5,28-3.9c8.8,6.7,10.6,19.2,3.9,28l-34.1,45.1
		c36.8,33.5,64.5,77.4,78.1,127.8c2.9,10.7-3.4,21.6-14.1,24.5c-10.7,2.9-21.6-3.4-24.5-14.1c-26.7-99.1-117.2-168.3-220-168.3
		c-125.6,0-227.8,102.2-227.8,227.8S414.4,767.8,540,767.8c20.7,0,40.7-2.7,59.8-7.9c0.7-14.4,0.2-31.4-2.5-43.8
		c-18,5.9-37.3,9.1-57.3,9.1c-40.3,0-78.5-12.7-110.7-36.7c-31.1-23.2-54.5-56.3-66.1-93.1c-3.3-10.5,2.6-21.8,13.1-25.1
		c10.5-3.3,21.8,2.6,25.1,13.1c19,60.9,74.8,101.8,138.6,101.8c26.5,0,51.4-7.1,72.8-19.6c4.7,7,8,20.1,8,20.1
		c4.7-9,6.4-21.6,5.9-29.3c35.5-26.5,58.5-68.8,58.5-116.4c0-73.3-54.6-134-125.2-143.8v43.2c35.2,7,64.9,32.2,77,67
		c3.6,10.4-1.9,21.8-12.3,25.5c-10.4,3.6-21.8-1.9-25.5-12.3c-8.7-25.2-32.5-42.1-59.2-42.1c-34.5,0-62.6,28.1-62.6,62.6
		c0,34.5,28.1,62.6,62.6,62.6c27.3,0,51.3-17.5,59.6-43.5c3.4-10.5,14.6-16.3,25.1-13c10.5,3.4,16.3,14.6,13,25.1
		c-13.6,42.7-52.9,71.3-97.7,71.3c-56.6,0-102.6-46-102.6-102.6c0-49.7,35.6-91.3,82.6-100.6v-43.2c-57.7,8-105.8,49.9-120.6,107.5
		c-2.8,10.7-13.7,17.1-24.3,14.4c-10.7-2.8-17.1-13.7-14.4-24.4c21-81.8,94.8-138.9,179.4-138.9c102.1,0,185.2,83.1,185.2,185.2
		c0,54.7-23.9,104-61.7,137.9c0.3,12.5-0.2,34.2-5.9,57.5c51.4-30.8,89.9-81.6,104.3-143.6c2.5-10.8,13.3-17.5,24-15
		C796.7,579.4,803.3,590.1,800.8,600.9z"/>
</g>
</svg>
