<?xml version="1.0" encoding="utf-8"?>
<!-- Generator: Adobe Illustrator 21.1.0, SVG Export Plug-In . SVG Version: 6.00 Build 0)  -->
<svg version="1.1" id="Layer_1" xmlns="http://www.w3.org/2000/svg" xmlns:xlink="http://www.w3.org/1999/xlink" x="0px" y="0px"
	 viewBox="0 0 1920 720" style="enable-background:new 0 0 1920 720;" xml:space="preserve">
<style type="text/css">
	.st0{fill:#FFFFFF;}
</style>
<g>
	<path class="st0" d="M224.3,310c-1.3-2.5-4.4-3.6-6.9-2.3c-2.5,1.3-3.6,4.4-2.3,6.9c7.1,14.1,10.7,29.4,10.7,45.4
		c0,55.9-45.5,101.4-101.4,101.4c-40.3,0-76.9-23.9-93-60.9c-1.1-2.6-4.2-3.8-6.8-2.7c-2.6,1.1-3.8,4.2-2.7,6.8
		c17.8,40.7,58,67.1,102.5,67.1c15.1,0,29.7-3,43.5-8.8c13.3-5.6,25.3-13.7,35.5-24c10.3-10.3,18.3-22.2,24-35.5
		c5.8-13.8,8.8-28.4,8.8-43.5C236.1,342.4,232.1,325.6,224.3,310z"/>
	<path class="st0" d="M56.1,419.4C67,432,81.2,441.2,96.9,446.2c0.5,0.2,1,0.2,1.6,0.2c2.2,0,4.2-1.4,4.9-3.6
		c0.9-2.7-0.6-5.6-3.4-6.5c-28.4-9-49.9-33.8-54.8-63.2c-0.2-1.5-1.1-2.7-2.3-3.5c-1.3-0.8-2.8-1-4.2-0.6l-15,4.4
		c-0.6-4.5-0.9-9-0.9-13.5c0-27.8,11-53.8,31.1-73.1c2.1-2,2.1-5.2,0.1-7.3c-2-2.1-5.2-2.1-7.3-0.1c-10.7,10.3-19.1,22.4-25.1,36
		c-6.1,14.1-9.2,29-9.2,44.5c0,7.1,0.7,14.2,2,21c0.3,1.4,1.1,2.7,2.4,3.4c1.2,0.8,2.7,1,4.1,0.5l15.2-4.4
		C39.5,394.9,46.4,408.2,56.1,419.4z"/>
	<path class="st0" d="M39,355.3c0.2,0,0.4,0,0.6,0c2.6,0,4.8-1.9,5.1-4.6c4.7-40.4,38.9-70.8,79.6-70.8c11.6,0,22.7,2.4,33.2,7.2
		c1.3,0.6,2.7,0.6,4,0.1c1.3-0.5,2.3-1.5,2.9-2.7l6.5-14.6c9.5,4.9,18.3,11.3,25.9,19.1l-11.9,10.8c-2.1,1.9-2.3,5.1-0.4,7.2
		c11.8,13.3,18.7,30.2,19.9,47.8h-17.7c-2.9,0-5.2,2.3-5.2,5.2s2.3,5.2,5.2,5.2h17.6c-2.7,41.8-37.5,75-80,75
		c-2.9,0-5.2,2.3-5.2,5.2c0,2.9,2.3,5.2,5.2,5.2c12.2,0,24.1-2.4,35.2-7.1c10.8-4.6,20.4-11.1,28.7-19.4c8.3-8.3,14.8-18,19.4-28.7
		c4.7-11.2,7.1-23,7.1-35.2c0-20.4-6.8-40-19.4-55.9l12.1-11c2.1-1.9,2.3-5.1,0.4-7.2c-10.4-11.7-22.8-20.9-37-27.4
		c-0.1-0.1-0.3-0.1-0.4-0.2c0,0,0,0,0,0c0,0,0,0,0,0c-14.5-6.6-30-9.9-46.1-9.9c-19.9,0-39.4,5.3-56.4,15.3
		c-2.5,1.4-3.3,4.6-1.8,7.1c1.4,2.5,4.6,3.3,7.1,1.8c15.5-9.1,33.2-13.9,51.2-13.9c12.8,0,25.4,2.4,37.1,7.1l-4.5,10
		c-10.4-4-21.3-6.1-32.6-6.1c-22.3,0-43.8,8.2-60.4,23.1c-16.5,14.8-26.9,35-29.5,56.9C34.1,352.4,36.2,354.9,39,355.3z"/>
	<path class="st0" d="M188,386.8c-5.2,12.4-13.9,22.9-25,30.5c-11.4,7.7-24.8,11.8-38.7,11.8c-18.5,0-35.8-7.2-48.9-20.2
		c-13.1-13.1-20.2-30.4-20.2-48.9s7.2-35.8,20.2-48.9c13.1-13.1,30.4-20.2,48.9-20.2c13.4,0,26.2,3.9,37,10.7l8.6-11.8
		c1.7-2.3,4.9-2.8,7.2-1.1c2.3,1.7,2.8,4.9,1.1,7.2l-8.7,11.8c7.8,6.8,14.2,15.4,18.4,25.3c1.1,2.6-0.1,5.7-2.7,6.8
		c-2.6,1.1-5.7-0.1-6.8-2.7c-4.1-9.7-10.6-17.9-18.7-24c-0.1-0.1-0.2-0.2-0.4-0.2c-0.1-0.1-0.3-0.2-0.4-0.3
		c-9.9-7.2-22-11.4-34.8-11.4c-32.4,0-58.8,26.4-58.8,58.8s26.4,58.8,58.8,58.8c5.3,0,10.5-0.7,15.4-2.1c0.2-3.7,0-8.1-0.7-11.3
		c-4.7,1.5-9.6,2.3-14.8,2.3c-10.4,0-20.3-3.3-28.6-9.5c-8-6-14.1-14.5-17.1-24c-0.9-2.7,0.7-5.6,3.4-6.5c2.7-0.9,5.6,0.7,6.5,3.4
		c4.9,15.7,19.3,26.3,35.8,26.3c6.6,0,12.8-1.7,18.2-4.7c1.4,1.8,3,4.2,3.9,6.8c0,0,1.6-4.5,0.8-9.9c8.9-6.9,14.6-17.6,14.6-29.6
		c0-18.9-14.1-34.6-32.3-37.1V334c7.4,1.5,13.9,6.1,17.8,12.7c1.4,2.5,0.6,5.6-1.9,7.1c-2.5,1.4-5.6,0.6-7.1-1.9
		c-2.9-5-8.2-8.1-14-8.1c-8.9,0-16.2,7.2-16.2,16.2s7.2,16.2,16.2,16.2c5.7,0,11.1-3.1,13.9-8c1.4-2.5,4.6-3.3,7.1-1.8
		c2.5,1.4,3.3,4.6,1.8,7.1c-4.7,8.1-13.5,13.1-22.8,13.1c-14.6,0-26.5-11.9-26.5-26.5c0-12.8,9.2-23.6,21.3-26v-11.2
		c-14.3,1.9-26.2,11.9-30.6,25.9c-0.9,2.7-3.7,4.2-6.5,3.4c-2.7-0.9-4.2-3.7-3.4-6.5c3-9.5,9-18.1,17.1-24
		c8.3-6.2,18.2-9.5,28.6-9.5c26.4,0,47.8,21.4,47.8,47.8c0,14.1-6.2,26.8-15.9,35.6c0.1,3.2-0.1,8.8-1.5,14.8
		c10.4-6.3,18.9-15.8,23.9-27.6c1.1-2.6,4.1-3.9,6.8-2.8C187.9,381.1,189.1,384.2,188,386.8z"/>
</g>
<g>
</g>
<g>
</g>
<g>
	<path class="st0" d="M295.5,432V287.3c0-7.8,6.3-14.1,14.1-14.1h0c7.8,0,14.1,6.3,14.1,14.1v53.1c0,1.5,1.9,2.2,2.9,1.1l55.4-63.8
		c2.4-2.8,6-4.4,9.7-4.4h0c11,0,16.9,13.1,9.5,21.3l-49.5,55.6l58.3,73.1c7.4,9.2,0.8,22.9-11,22.9h0c-4.4,0-8.5-2-11.2-5.5
		l-61.2-79c-1-1.2-2.9-0.6-2.9,1V432c0,7.8-6.3,14.1-14.1,14.1h0C301.8,446.1,295.5,439.8,295.5,432z"/>
	<path class="st0" d="M590.7,360c0,12.3-2.3,23.9-6.9,34.8c-4.6,10.9-11.3,20.7-20.1,29.3c-8.9,8.6-18.9,15.2-30.1,19.7
		c-11.2,4.6-22.9,6.8-35.2,6.8c-12.4,0-24.3-2.3-35.6-6.9c-11.3-4.6-21.3-11.2-29.9-19.7c-8.8-8.6-15.5-18.3-20.1-29.2
		c-4.6-10.9-6.8-22.5-6.8-34.9c0-12.4,2.3-24,6.8-34.9c4.6-10.9,11.3-20.7,20.1-29.4c8.8-8.6,18.8-15.1,30-19.6
		c11.2-4.5,23-6.7,35.5-6.7c12.4,0,24.2,2.2,35.4,6.7c11.1,4.5,21.1,11,29.9,19.6c8.8,8.7,15.5,18.6,20.1,29.6
		C588.4,336.2,590.7,347.8,590.7,360z M561.4,360c0-8.7-1.6-17-4.8-24.9c-3.2-7.9-7.8-14.9-13.8-21c-5.8-6.1-12.6-10.7-20.2-14
		c-7.7-3.3-15.8-4.9-24.3-4.9s-16.6,1.6-24.3,4.8c-7.7,3.2-14.5,7.9-20.5,14.1c-6,6.1-10.5,13-13.7,20.9c-3.1,7.9-4.7,16.2-4.7,25
		c0,8.7,1.6,17,4.7,24.8c3.1,7.8,7.7,14.8,13.7,20.9c6,6.1,12.8,10.8,20.4,14.1c7.6,3.2,15.7,4.8,24.3,4.8c8.4,0,16.4-1.6,24-4.8
		c7.6-3.2,14.4-7.9,20.5-14.1c6-6.1,10.6-13.1,13.8-21C559.8,376.9,561.4,368.7,561.4,360z"/>
	<path class="st0" d="M606.9,433.1V279.6c0-5,5.9-7.5,9.5-4l119.1,114.3V286.1c0-7.1,5.8-12.9,12.9-12.9h0.1
		c7.1,0,12.9,5.8,12.9,12.9v153.5c0,5-5.9,7.5-9.5,4.1L632.8,328.9v104.2c0,7.1-5.8,12.9-12.9,12.9h0
		C612.7,446.1,606.9,440.3,606.9,433.1z"/>
	<path class="st0" d="M849.6,297.1v137.1c0,6.6-5.3,11.9-11.9,11.9h-4.3c-6.6,0-11.9-5.3-11.9-11.9V297.1h-34
		c-6.6,0-11.9-5.3-11.9-11.9v0c0-6.6,5.3-11.9,11.9-11.9h95.9c6.6,0,11.9,5.3,11.9,11.9v0c0,6.6-5.3,11.9-11.9,11.9H849.6z"/>
	<path class="st0" d="M909.4,434.2v-149c0-6.6,5.3-11.9,11.9-11.9H994c6.6,0,11.9,5.3,11.9,11.9v0c0,6.6-5.3,11.9-11.9,11.9h-53.3
		c-1.7,0-3.1,1.4-3.1,3.1v37.1c0,1.7,1.4,3.1,3.1,3.1H994c6.6,0,11.9,5.3,11.9,11.9v0.8c0,6.6-5.3,11.9-11.9,11.9h-53.3
		c-1.7,0-3.1,1.4-3.1,3.1v49.6c0,1.7,1.4,3.1,3.1,3.1H994c6.6,0,11.9,5.3,11.9,11.9v1.3c0,6.6-5.3,11.9-11.9,11.9h-72.6
		C914.8,446.1,909.4,440.7,909.4,434.2z"/>
	<path class="st0" d="M1173,360.7l-2.6-12.4c-0.4-1.9-3-2.2-3.8-0.5l-42.1,89.4c-3.1,6.4-12.3,6.4-15.4-0.1l-37.6-78.1l-5.2-11.2
		c-0.8-1.8-3.4-1.5-3.8,0.4l-2.6,12.6l-16.4,75.2c-1.3,5.8-6.4,9.9-12.3,9.9l0,0c-8.1,0-14-7.5-12.3-15.3l35.3-155.9
		c0.7-2.9,4.6-3.4,5.9-0.6l47.1,100.8c0.8,1.7,2,4.6,3.6,8.6c0.8,1.9,1.6,4.1,2.6,6.5c1.1,2.9,5.2,2.9,6.4,0
		c1.3-3.2,2.9-6.7,4.7-10.6c0.9-2,1.7-3.6,2.1-4.7l45.1-98.7c1.5-3.3,6.4-2.9,7.3,0.7l35.7,153.8c1.8,7.9-4.2,15.4-12.2,15.4h-0.2
		c-5.9,0-11-4.1-12.3-9.8L1173,360.7z"/>
	<path class="st0" d="M1259.6,368.5v64.4c0,7.3-5.9,13.2-13.2,13.2l0,0c-7.3,0-13.2-5.9-13.2-13.2V286.4c0-7.3,5.9-13.2,13.2-13.2
		h29.3c12.6,0,21.9,0.7,27.8,2.1c5.9,1.4,11.1,3.6,15.5,6.8c5.4,4,9.7,9.4,12.8,16.2c3.1,6.8,4.6,14.3,4.6,22.5
		c0,8.2-1.5,15.7-4.6,22.7c-3.1,6.9-7.3,12.4-12.8,16.3c-4.4,3.1-9.6,5.4-15.5,6.7c-5.9,1.3-15.2,2-27.8,2h-5.5H1259.6z
		 M1261.3,338.3c0,4,3.2,7.2,7.2,7.2l0,0c15.6,0,26-1.7,31.2-5.1c5.2-3.4,7.8-9.4,7.8-17.9c0-9.2-2.8-15.7-8.3-19.5
		c-5.5-3.8-15.8-5.7-30.6-5.7l0,0c-4,0-7.2,3.2-7.2,7.2V338.3z"/>
	<path class="st0" d="M1347.2,433.5V285.8c0-6.9,5.6-12.6,12.6-12.6h3c6.9,0,12.6,5.6,12.6,12.6v122.6c0,6.9,5.6,12.6,12.6,12.6
		h37.7c6.9,0,12.6,5.6,12.6,12.6v0c0,6.9-5.6,12.6-12.6,12.6h-65.8C1352.8,446.1,1347.2,440.4,1347.2,433.5z"/>
	<path class="st0" d="M1575.3,438.1l-14.2-32.4c-1.1-2.6-3.6-4.2-6.4-4.2h-59.3c-2.8,0-5.3,1.6-6.4,4.1l-14.7,32.5
		c-2.2,4.8-6.9,7.8-12.1,7.8h0c-9.7,0-16.2-10.1-12.1-19l69.1-148.4c2.3-4.9,9.2-4.9,11.5,0l69,148.4c4.1,8.8-2.3,18.9-12.1,18.9h0
		C1582.2,446.1,1577.4,443,1575.3,438.1z M1509.3,378.2h31.6c3.9,0,6.6-4,4.9-7.6l-15.2-34c-2.3-5-9.4-5-11.6,0.1l-14.7,33.9
		C1502.8,374.2,1505.4,378.2,1509.3,378.2z"/>
	<path class="st0" d="M1653.8,297.1v137.1c0,6.6-5.3,11.9-11.9,11.9h-4.3c-6.6,0-11.9-5.3-11.9-11.9V297.1h-34
		c-6.6,0-11.9-5.3-11.9-11.9v0c0-6.6,5.3-11.9,11.9-11.9h95.9c6.6,0,11.9,5.3,11.9,11.9v0c0,6.6-5.3,11.9-11.9,11.9H1653.8z"/>
	<path class="st0" d="M1876,360c0,12.3-2.3,23.9-6.9,34.8c-4.6,10.9-11.3,20.7-20.1,29.3c-8.9,8.6-18.9,15.2-30.1,19.7
		c-11.2,4.6-22.9,6.8-35.2,6.8c-12.4,0-24.3-2.3-35.6-6.9c-11.3-4.6-21.3-11.2-29.9-19.7c-8.8-8.6-15.5-18.3-20.1-29.2
		c-4.6-10.9-6.8-22.5-6.8-34.9c0-12.4,2.3-24,6.8-34.9c4.6-10.9,11.3-20.7,20.1-29.4c8.8-8.6,18.8-15.1,30-19.6
		c11.2-4.5,23-6.7,35.5-6.7c12.4,0,24.2,2.2,35.4,6.7c11.1,4.5,21.1,11,29.9,19.6c8.8,8.7,15.5,18.6,20.1,29.6
		C1873.7,336.2,1876,347.8,1876,360z M1846.8,360c0-8.7-1.6-17-4.8-24.9c-3.2-7.9-7.8-14.9-13.8-21c-5.8-6.1-12.6-10.7-20.3-14
		c-7.7-3.3-15.8-4.9-24.3-4.9c-8.5,0-16.6,1.6-24.3,4.8c-7.7,3.2-14.5,7.9-20.5,14.1c-6,6.1-10.6,13-13.7,20.9
		c-3.2,7.9-4.7,16.2-4.7,25c0,8.7,1.6,17,4.7,24.8c3.1,7.8,7.7,14.8,13.7,20.9c6,6.1,12.8,10.8,20.4,14.1c7.6,3.2,15.7,4.8,24.3,4.8
		c8.4,0,16.4-1.6,24-4.8c7.6-3.2,14.4-7.9,20.5-14.1c6-6.1,10.6-13.1,13.8-21C1845.2,376.9,1846.8,368.7,1846.8,360z"/>
</g>
</svg>
